<svg xmlns="http://www.w3.org/2000/svg" width="1732" height="213" viewBox="0 0 1732 213">
  <g id="Union_1" data-name="Union 1" transform="translate(0 1160)" fill="#fff">
    <path d="M 1670.71142578125 -947.499755859375 L 1548.999755859375 -947.499755859375 L 182.9998168945313 -947.499755859375 L 61.28926849365234 -947.499755859375 L 0.5767880082130432 -1053 L 61.28926849365234 -1158.500244140625 L 122.0004653930664 -1158.500244140625 L 122.5004653930664 -1158.500244140625 L 122.5004653930664 -1159.000244140625 L 122.5004653930664 -1159.500244140625 L 1609.500244140625 -1159.500244140625 L 1609.500244140625 -1159.000244140625 L 1609.500244140625 -1158.500244140625 L 1610.000244140625 -1158.500244140625 L 1670.71142578125 -1158.500244140625 L 1731.4228515625 -1053 L 1670.71142578125 -947.499755859375 Z" stroke="none"/>
    <path d="M 1670.422241210938 -947.999755859375 L 1730.845825195313 -1053 L 1670.422241210938 -1158.000244140625 L 1610.000244140625 -1158.000244140625 L 1609.000244140625 -1158.000244140625 L 1609.000244140625 -1159.000244140625 L 123.0004653930664 -1159.000244140625 L 123.0004653930664 -1158.000244140625 L 122.0004653930664 -1158.000244140625 L 61.5785026550293 -1158.000244140625 L 1.153759121894836 -1053 L 61.5785026550293 -947.999755859375 L 182.9998168945313 -947.999755859375 L 1548.999755859375 -947.999755859375 L 1670.422241210938 -947.999755859375 M 1671.00048828125 -946.999755859375 L 1548.999755859375 -946.999755859375 L 182.9998168945313 -946.999755859375 L 61.00025177001953 -946.999755859375 L 3.428583659115247e-05 -1053 L 61.00025177001953 -1159.000244140625 L 122.0004653930664 -1159.000244140625 L 122.0004653930664 -1160.000244140625 L 1610.000244140625 -1160.000244140625 L 1610.000244140625 -1159.000244140625 L 1671.00048828125 -1159.000244140625 L 1731.999633789063 -1053 L 1671.00048828125 -946.999755859375 Z" stroke="none" fill="#707070"/>
  </g>
</svg>
